<svg id="Mobile" xmlns="http://www.w3.org/2000/svg" xmlns:xlink="http://www.w3.org/1999/xlink" viewBox="0 0 174.37 174.37"><defs><style>.cls-1{fill:url(#linear-gradient);}.cls-2,.cls-3{fill:none;}.cls-2,.cls-3,.cls-4,.cls-5,.cls-6{stroke-miterlimit:10;stroke-width:5.25px;}.cls-2{stroke:url(#linear-gradient-2);}.cls-3{stroke:url(#linear-gradient-3);}.cls-4,.cls-5,.cls-6{fill:#fff;}.cls-4{stroke:url(#linear-gradient-4);}.cls-5{stroke:url(#linear-gradient-5);}.cls-6{stroke:url(#linear-gradient-6);}.cls-7{fill:url(#linear-gradient-7);}.cls-8{fill:url(#linear-gradient-8);}</style><linearGradient id="linear-gradient" x1="0.07" y1="87.21" x2="174.44" y2="87.21" gradientUnits="userSpaceOnUse"><stop offset="0" stop-color="#79ebd4"/><stop offset="1" stop-color="#88f89a"/></linearGradient><linearGradient id="linear-gradient-2" x1="38.37" y1="85.58" x2="90.22" y2="85.58" xlink:href="#linear-gradient"/><linearGradient id="linear-gradient-3" x1="84.3" y1="85.46" x2="135.83" y2="85.46" xlink:href="#linear-gradient"/><linearGradient id="linear-gradient-4" x1="77.06" y1="55.91" x2="97" y2="55.91" xlink:href="#linear-gradient"/><linearGradient id="linear-gradient-5" x1="34.64" y1="69.02" x2="49.97" y2="69.02" xlink:href="#linear-gradient"/><linearGradient id="linear-gradient-6" x1="124.36" y1="67.99" x2="139.68" y2="67.99" xlink:href="#linear-gradient"/><linearGradient id="linear-gradient-7" x1="49.79" y1="122.69" x2="90.52" y2="122.69" xlink:href="#linear-gradient"/><linearGradient id="linear-gradient-8" x1="85.08" y1="122.39" x2="125.81" y2="122.39" xlink:href="#linear-gradient"/></defs><title>Premium_ICON</title><g id="Icon_Premium"><path class="cls-1" d="M87.25,6a81.2,81.2,0,1,1-81.2,81.2A81.19,81.19,0,0,1,87.25,6m0-6a87.19,87.19,0,1,0,87.19,87.19A87.28,87.28,0,0,0,87.25,0Z" transform="translate(-0.07 -0.02)"/><polygon class="cls-2" points="87.57 117.82 87.03 59.41 71.19 83.68 42.69 70.36 57.77 117.82 87.57 117.82"/><polygon class="cls-3" points="131.63 69.29 103.45 83.29 87.03 59.41 87.73 117.46 117.69 117.1 131.63 69.29"/><circle class="cls-4" cx="87.03" cy="55.91" r="7.34"/><circle class="cls-5" cx="42.3" cy="69.02" r="5.04"/><circle class="cls-6" cx="132.02" cy="67.99" r="5.04"/><path class="cls-7" d="M85.14,120.11,85.2,125l-27.69.37h0a2.44,2.44,0,0,1,0-4.87l27.69-.36m5.19-5.33-5.26.07-27.69.37A7.7,7.7,0,0,0,49.79,123a7.71,7.71,0,0,0,7.69,7.59h.09l27.7-.36,5.25-.07-.07-5.25L90.39,120l-.06-5.26Z" transform="translate(-0.07 -0.02)"/><path class="cls-8" d="M118.12,119.74a2.44,2.44,0,0,1,0,4.87l-27.7.36,0-4.86,27.69-.37h0m0-5.25H118l-27.7.36-5.25.07.06,5.25L85.2,125l.06,5.26,5.26-.07,27.7-.37a7.67,7.67,0,0,0,7.58-7.78,7.71,7.71,0,0,0-7.68-7.59Z" transform="translate(-0.07 -0.02)"/></g></svg>