<svg id="Mobile" xmlns="http://www.w3.org/2000/svg" xmlns:xlink="http://www.w3.org/1999/xlink" viewBox="0 0 174.4 174.4"><defs><style>.cls-1{fill:url(#linear-gradient);}.cls-2{fill:url(#linear-gradient-2);}.cls-3{fill:url(#linear-gradient-3);}</style><linearGradient id="linear-gradient" x1="0.05" y1="87.21" x2="174.45" y2="87.21" gradientUnits="userSpaceOnUse"><stop offset="0" stop-color="#79ebd4"/><stop offset="1" stop-color="#88f89a"/></linearGradient><linearGradient id="linear-gradient-2" x1="32.9" y1="87.21" x2="141.61" y2="87.21" xlink:href="#linear-gradient"/><linearGradient id="linear-gradient-3" x1="58.59" y1="97.37" x2="118.11" y2="97.37" xlink:href="#linear-gradient"/></defs><title>Profile_ICON</title><g id="Icon_Profile"><path class="cls-1" d="M87.25,6a81.2,81.2,0,1,1-81.2,81.2A81.19,81.19,0,0,1,87.25,6m0-6a87.2,87.2,0,1,0,87.2,87.2A87.3,87.3,0,0,0,87.25,0Z" transform="translate(-0.05 -0.01)"/><path class="cls-2" d="M87.25,38.85A48.36,48.36,0,1,1,38.9,87.21,48.36,48.36,0,0,1,87.25,38.85m0-6a54.36,54.36,0,1,0,54.36,54.36A54.42,54.42,0,0,0,87.25,32.85Z" transform="translate(-0.05 -0.01)"/><path class="cls-3" d="M90.22,61.67c11.08,0,13.88,15.2,13.88,15.2s.1-1.45,1.4-1.45a3.56,3.56,0,0,1,1.67.54c2.89,1.63-.54,4.52-.54,4.52a10.39,10.39,0,0,1,3.59-.94c1.19,0,2.14.53,1.83,2.39-.72,4.34-7.77,5.42-7.77,5.42.87,22.05-12.71,27.43-12.71,27.43a11.31,11.31,0,0,0,2.54,7.15c-.76.2,17.75,4,16,5a50.22,50.22,0,0,1-24.18,6.15c-11.51,0-19.82-3.87-19.82-5.15,0-3,15.22-4.54,14-5,.81-1.54,1.17-4.55,1.33-7.36,0,0-10.1-2.19-15.57-23.34-4.57-17.65,4.25-21,6.78-23.31a3.43,3.43,0,0,1,2.39-1,3.9,3.9,0,0,1,2.49,1c-.18-1.09.36-1.27.36-1.27,5.42-5.58,10.18-6,11.43-6a2,2,0,0,1,.32,0l.58,0m0-6h-.9c-2.25,0-7.87.65-14.07,6.2H75a9.46,9.46,0,0,0-6.48,2.65c-.1.09-.48.37-.76.58-3.8,2.8-12.72,9.38-7.74,28.63,2.54,9.83,6.38,17.35,11.42,22.35A25.77,25.77,0,0,0,74,118.26c-6.87,1.4-13.84,3.35-13.84,9.67,0,5,5.22,7.31,9.76,8.77a54.3,54.3,0,0,0,16.06,2.38A55.87,55.87,0,0,0,113,132.2a6.12,6.12,0,0,0,3.19-6.2c-.56-4.4-4.72-5.59-8.38-6.64-2.42-.69-5.39-1.42-7.78-2l-1-.25c4.6-3.8,10.66-11.4,11.29-25.31l0,0c5.81-2.55,7.3-6.64,7.67-8.85a8,8,0,0,0-1.65-6.7,7.4,7.4,0,0,0-2.83-2,8.44,8.44,0,0,0-3.38-3.43,11.39,11.39,0,0,0-1.83-.83c-2.72-6.82-8.35-14.23-18.06-14.23Z" transform="translate(-0.05 -0.01)"/></g></svg>