<svg id="Mobile" xmlns="http://www.w3.org/2000/svg" xmlns:xlink="http://www.w3.org/1999/xlink" viewBox="0 0 201.71 29.14"><defs><style>.cls-1{fill:url(#linear-gradient);}.cls-2{fill:url(#linear-gradient-2);}.cls-3{fill:url(#linear-gradient-3);}.cls-4{fill:url(#linear-gradient-4);}.cls-5{fill:url(#linear-gradient-5);}.cls-6{fill:url(#linear-gradient-6);}</style><linearGradient id="linear-gradient" x1="15.24" y1="-1.17" x2="15.24" y2="25.28" gradientUnits="userSpaceOnUse"><stop offset="0" stop-color="#ffe276"/><stop offset="1" stop-color="#ffc279"/></linearGradient><linearGradient id="linear-gradient-2" x1="58.04" y1="-1.17" x2="58.04" y2="25.28" xlink:href="#linear-gradient"/><linearGradient id="linear-gradient-3" x1="100.85" y1="-1.17" x2="100.85" y2="25.28" xlink:href="#linear-gradient"/><linearGradient id="linear-gradient-4" x1="143.66" y1="-1.17" x2="143.66" y2="25.28" xlink:href="#linear-gradient"/><linearGradient id="linear-gradient-5" x1="186.47" y1="0" x2="186.47" y2="29.14" xlink:href="#linear-gradient"/><linearGradient id="linear-gradient-6" x1="178.85" y1="-1.17" x2="178.85" y2="25.28" xlink:href="#linear-gradient"/></defs><title>Stars_2</title><g id="Rank_Stars_6"><path class="cls-1" d="M16.71.92l3.82,7.73,8.53,1.24A1.65,1.65,0,0,1,30,12.7l-6.17,6,1.46,8.49A1.65,1.65,0,0,1,22.87,29l-7.63-4L7.61,29a1.64,1.64,0,0,1-2.39-1.74l1.45-8.49L.5,12.7a1.65,1.65,0,0,1,.91-2.81L9.94,8.65,13.76.92A1.64,1.64,0,0,1,16.71.92Z" transform="translate(0 0)"/><path class="cls-2" d="M59.52.92l3.82,7.73,8.53,1.24a1.65,1.65,0,0,1,.91,2.81l-6.17,6,1.46,8.49A1.65,1.65,0,0,1,65.68,29l-7.64-4-7.63,4A1.65,1.65,0,0,1,48,27.21l1.46-8.49-6.17-6a1.65,1.65,0,0,1,.91-2.81l8.53-1.24L56.57.92A1.64,1.64,0,0,1,59.52.92Z" transform="translate(0 0)"/><path class="cls-3" d="M102.33.92l3.82,7.73,8.53,1.24a1.65,1.65,0,0,1,.91,2.81l-6.17,6,1.45,8.49A1.64,1.64,0,0,1,108.48,29l-7.63-4-7.63,4a1.65,1.65,0,0,1-2.39-1.74l1.46-8.49-6.17-6A1.65,1.65,0,0,1,87,9.89l8.53-1.24L99.38.92A1.64,1.64,0,0,1,102.33.92Z" transform="translate(0 0)"/><path class="cls-4" d="M145.14.92,149,8.65l8.53,1.24a1.65,1.65,0,0,1,.92,2.81l-6.17,6,1.45,8.49A1.65,1.65,0,0,1,151.29,29l-7.63-4L136,29a1.65,1.65,0,0,1-2.39-1.74l1.46-8.49-6.18-6a1.65,1.65,0,0,1,.92-2.81l8.53-1.24L142.18.92A1.65,1.65,0,0,1,145.14.92Z" transform="translate(0 0)"/><path class="cls-5" d="M186.47,1.57c.05,0,.06,0,.07,0l3.82,7.73.36.74.82.12,8.53,1.24s.05,0,.06.05a.07.07,0,0,1,0,.09l-6.17,6-.59.57.14.81,1.46,8.5s0,.05,0,.06a.09.09,0,0,1-.07,0h0l-7.63-4-.73-.38-.73.38-7.67,4a.13.13,0,0,1-.07,0s0,0,0-.06l1.46-8.5.14-.81L179,17.6l-6.18-6a.08.08,0,0,1,0-.09c0-.05,0-.05.07-.05l8.53-1.24.82-.12.36-.74,3.81-7.73a.09.09,0,0,1,.08,0m0-1.57A1.63,1.63,0,0,0,185,.92l-3.81,7.73-8.53,1.24a1.65,1.65,0,0,0-.92,2.81l6.17,6-1.45,8.49a1.64,1.64,0,0,0,1.62,1.93,1.68,1.68,0,0,0,.77-.19l7.63-4,7.63,4a1.65,1.65,0,0,0,2.39-1.74L195,18.72l6.18-6a1.65,1.65,0,0,0-.92-2.81l-8.53-1.24L188,.92A1.64,1.64,0,0,0,186.47,0Z" transform="translate(0 0)"/><path class="cls-6" d="M186.47,24.94l-7.63,4a1.65,1.65,0,0,1-2.39-1.74l1.45-8.49-6.17-6a1.65,1.65,0,0,1,.92-2.81l8.53-1.24L185,.92A1.63,1.63,0,0,1,186.47,0Z" transform="translate(0 0)"/></g></svg>