<svg id="Mobile" xmlns="http://www.w3.org/2000/svg" xmlns:xlink="http://www.w3.org/1999/xlink" viewBox="0 0 174.46 174.46"><defs><style>.cls-1{fill:url(#linear-gradient);}.cls-2{fill:url(#linear-gradient-2);}</style><linearGradient id="linear-gradient" x1="0.04" y1="87.19" x2="174.51" y2="87.19" gradientUnits="userSpaceOnUse"><stop offset="0" stop-color="#79ebd4"/><stop offset="1" stop-color="#88f89a"/></linearGradient><linearGradient id="linear-gradient-2" x1="39.8" y1="87.25" x2="135.98" y2="87.25" xlink:href="#linear-gradient"/></defs><title>Video_ICON</title><g id="Icon_Watch_VIdeo"><path class="cls-1" d="M87.28,5.94A81.25,81.25,0,1,1,6,87.19,81.25,81.25,0,0,1,87.28,5.94m0-6a87.23,87.23,0,1,0,87.23,87.23A87.34,87.34,0,0,0,87.28,0Z" transform="translate(-0.04 0.04)"/><path class="cls-2" d="M87.89,57.17q21.1,0,31.53,1.18a10,10,0,0,1,5.85,2.72,10.94,10.94,0,0,1,3.27,5.78,57,57,0,0,1,1,6.94c.23,2.58.37,4.72.4,6.41s.05,4,.05,7,0,5.36-.05,7-.17,3.83-.4,6.41a50.8,50.8,0,0,1-1.06,6.93,11,11,0,0,1-3.24,5.78,9.88,9.88,0,0,1-5.83,2.73q-10.42,1.17-31.53,1.17t-31.53-1.17a10,10,0,0,1-5.85-2.73,10.86,10.86,0,0,1-3.27-5.78,58.53,58.53,0,0,1-1-6.93c-.23-2.58-.37-4.72-.4-6.41s0-4,0-7,0-5.36,0-7,.17-3.83.4-6.41a52.83,52.83,0,0,1,1.06-6.94,11,11,0,0,1,3.24-5.78,9.93,9.93,0,0,1,5.83-2.72q10.42-1.17,31.53-1.18m-9,48.12a2.65,2.65,0,0,0,1.6-.47l24.06-15a3,3,0,0,0,0-5.08l-24.06-15a2.87,2.87,0,0,0-1.58-.49,3.14,3.14,0,0,0-1.48.4,2.8,2.8,0,0,0-1.55,2.63v30.08a2.81,2.81,0,0,0,1.55,2.63,3.26,3.26,0,0,0,1.46.37m9-54.1c-14.42,0-25,.39-32.2,1.21a15.82,15.82,0,0,0-9.27,4.32,16.91,16.91,0,0,0-5,8.82,56.6,56.6,0,0,0-1.18,7.7c-.25,2.76-.39,5-.43,6.85s0,4.07,0,7.16,0,5.43.05,7.16.17,4.09.42,6.84a62.91,62.91,0,0,0,1.12,7.66,16.89,16.89,0,0,0,5,8.89,15.94,15.94,0,0,0,9.27,4.3c7.24.82,17.78,1.21,32.2,1.21s25-.39,32.2-1.21a15.85,15.85,0,0,0,9.27-4.32,16.91,16.91,0,0,0,5-8.82,56.11,56.11,0,0,0,1.18-7.7c.25-2.76.39-5,.43-6.85s0-4.13,0-7.16,0-5.45,0-7.16-.17-4.08-.43-6.84a62.91,62.91,0,0,0-1.12-7.66,16.82,16.82,0,0,0-5-8.89,15.82,15.82,0,0,0-9.27-4.3c-7.25-.82-17.78-1.21-32.2-1.21Zm-6,45.71V77.6l15.44,9.65L81.85,96.9Z" transform="translate(-0.04 0.04)"/></g></svg>